<?xml version="1.0" encoding="UTF-8" standalone="no"?><!DOCTYPE svg PUBLIC "-//W3C//DTD SVG 1.1//EN" "http://www.w3.org/Graphics/SVG/1.1/DTD/svg11.dtd"><svg width="100%" height="100%" viewBox="0 0 550 550" version="1.1" xmlns="http://www.w3.org/2000/svg" xmlns:xlink="http://www.w3.org/1999/xlink" xml:space="preserve" xmlns:serif="http://www.serif.com/" style="fill-rule:evenodd;clip-rule:evenodd;stroke-linejoin:round;stroke-miterlimit:2;"><g><path d="M269.167,561.25l-0,-12.5l-4.584,0c1.25,4.167 2.917,8.333 4.584,12.5Z" style="fill:none;fill-rule:nonzero;"/><path d="M292.5,548.75l-5,0l0,12.5c1.667,-4.167 3.333,-8.333 5,-12.5Z" style="fill:none;fill-rule:nonzero;"/><path d="M269.167,80.417c-0,-28.334 -2.917,-55 -9.167,-79.167c-0,-0.417 -0.417,-0.833 -0.417,-1.25l-61.25,0c33.75,37.917 56.667,75 70.834,115.417l-0,-35Z" style="fill:url(#_Linear1);fill-rule:nonzero;"/><path d="M110.833,362.083c59.584,52.5 121.25,107.084 153.75,186.667l4.584,0l-0,-22.5c-0,-27.917 -2.917,-54.583 -9.167,-79.167c-23.75,-98.75 -90.833,-157.5 -161.667,-219.583c-16.25,-14.167 -58.75,-54.583 -98.333,-92.917l0,109.167c35.833,45.417 79.167,90.417 110.833,118.333Z" style="fill:url(#_Linear2);fill-rule:nonzero;"/><path d="M269.167,412.5l-0,-34.583c-0,-28.334 -2.917,-54.584 -9.167,-79.167c-23.75,-98.75 -90.833,-157.5 -161.667,-220l-96.666,-78.75l-1.667,0l-0,108.75c42.5,41.667 92.917,89.167 110.833,105c62.5,55 127.5,112.083 158.334,198.75Z" style="fill:url(#_Linear3);fill-rule:nonzero;"/><path d="M287.5,80.417l0,35c14.167,-40.417 37.083,-77.5 70.833,-115.417l-61.25,0c0,0.417 -0.416,0.833 -0.416,1.25c-5.834,24.583 -9.167,50.833 -9.167,79.167Z" style="fill:url(#_Linear4);fill-rule:nonzero;"/><path d="M296.667,298.75c-6.25,25 -9.167,50.833 -9.167,79.167l-0,35c30.833,-87.084 95.417,-143.75 158.333,-199.167c16.667,-15 62.084,-57.917 102.917,-97.5l-0,-111.25l-90.833,73.75c-70.417,62.5 -137.084,121.25 -161.25,220Z" style="fill:url(#_Linear5);fill-rule:nonzero;"/><path d="M287.917,229.167l-0,34.583c30.833,-87.083 95.416,-144.167 158.333,-199.167l79.167,-64.583l-141.667,0c-46.667,49.167 -73.75,95.833 -86.667,150c-6.25,25 -9.166,50.833 -9.166,79.167Z" style="fill:url(#_Linear6);fill-rule:nonzero;"/><path d="M269.167,264.167l-0,-34.584c-0,-28.333 -2.917,-54.583 -9.167,-79.166c-13.333,-54.167 -40,-100.834 -86.667,-150l-141.666,-0l79.583,64.583c62.083,55 127.083,112.083 157.917,199.167Z" style="fill:url(#_Linear7);fill-rule:nonzero;"/><path d="M111.667,510.833c14.166,12.5 28.333,25 42.5,38.334l90,-0c-31.25,-71.667 -87.084,-121.25 -145.834,-172.917c-28.333,-25 -65,-62.5 -98.333,-102.5l0,124.583c31.667,41.667 71.667,77.084 111.667,112.5Z" style="fill:url(#_Linear8);fill-rule:nonzero;"/><path d="M0,427.917l0,121.25l126.25,-0c-8.75,-7.917 -17.917,-16.25 -27.083,-24.167c-33.75,-30 -68.75,-61.25 -99.167,-97.083Z" style="fill:url(#_Linear9);fill-rule:nonzero;"/><path d="M458.333,524.583c-9.166,7.917 -18.333,16.25 -27.083,24.167l117.917,0l-0,-110.833c-28.334,31.666 -60,60 -90.834,86.666Z" style="fill:url(#_Linear10);fill-rule:nonzero;"/><path d="M458.333,227.5c-70.833,62.5 -137.5,121.25 -161.666,219.583c-5.834,24.584 -9.167,51.25 -9.167,79.167l0,22.083l5,0c32.5,-80 93.75,-134.166 153.75,-186.666c29.583,-25.834 68.75,-66.667 102.917,-108.75l-0,-110.834c-37.5,36.25 -75.834,72.084 -90.834,85.417Z" style="fill:url(#_Linear11);fill-rule:nonzero;"/><path d="M458.333,376.25c-58.75,51.667 -115,101.25 -145.833,172.917l90.833,-0c14.167,-12.917 28.334,-25.417 42.5,-38.334c36.25,-32.083 72.917,-64.166 102.917,-101.25l0,-126.666c-30.833,36.25 -64.167,70 -90.417,93.333Z" style="fill:url(#_Linear12);fill-rule:nonzero;"/></g><defs><linearGradient id="_Linear1" x1="0" y1="0" x2="1" y2="0" gradientUnits="userSpaceOnUse" gradientTransform="matrix(3.36067e-14,-548.839,548.839,3.36067e-14,233.73,548.924)"><stop offset="0" style="stop-color:#003d67;stop-opacity:1"/><stop offset="1" style="stop-color:#087385;stop-opacity:1"/><stop offset="1" style="stop-color:#087385;stop-opacity:1"/></linearGradient><linearGradient id="_Linear2" x1="0" y1="0" x2="1" y2="0" gradientUnits="userSpaceOnUse" gradientTransform="matrix(3.36067e-14,-548.839,548.839,3.36067e-14,134.53,548.924)"><stop offset="0" style="stop-color:#003d67;stop-opacity:1"/><stop offset="1" style="stop-color:#087385;stop-opacity:1"/></linearGradient><linearGradient id="_Linear3" x1="0" y1="0" x2="1" y2="0" gradientUnits="userSpaceOnUse" gradientTransform="matrix(3.36067e-14,-548.839,548.839,3.36067e-14,134.53,548.924)"><stop offset="0" style="stop-color:#003d67;stop-opacity:1"/><stop offset="1" style="stop-color:#087385;stop-opacity:1"/></linearGradient><linearGradient id="_Linear4" x1="0" y1="0" x2="1" y2="0" gradientUnits="userSpaceOnUse" gradientTransform="matrix(3.36067e-14,-548.839,548.839,3.36067e-14,322.94,548.924)"><stop offset="0" style="stop-color:#003d67;stop-opacity:1"/><stop offset="1" style="stop-color:#087385;stop-opacity:1"/></linearGradient><linearGradient id="_Linear5" x1="0" y1="0" x2="1" y2="0" gradientUnits="userSpaceOnUse" gradientTransform="matrix(3.36067e-14,-548.839,548.839,3.36067e-14,418.258,548.924)"><stop offset="0" style="stop-color:#003d67;stop-opacity:1"/><stop offset="1" style="stop-color:#087385;stop-opacity:1"/></linearGradient><linearGradient id="_Linear6" x1="0" y1="0" x2="1" y2="0" gradientUnits="userSpaceOnUse" gradientTransform="matrix(3.36067e-14,-548.839,548.839,3.36067e-14,406.522,548.924)"><stop offset="0" style="stop-color:#003d67;stop-opacity:1"/><stop offset="1" style="stop-color:#087385;stop-opacity:1"/></linearGradient><linearGradient id="_Linear7" x1="0" y1="0" x2="1" y2="0" gradientUnits="userSpaceOnUse" gradientTransform="matrix(3.36067e-14,-548.839,548.839,3.36067e-14,150.149,548.924)"><stop offset="0" style="stop-color:#003d67;stop-opacity:1"/><stop offset="1" style="stop-color:#087385;stop-opacity:1"/></linearGradient><linearGradient id="_Linear8" x1="0" y1="0" x2="1" y2="0" gradientUnits="userSpaceOnUse" gradientTransform="matrix(3.36067e-14,-548.839,548.839,3.36067e-14,122.124,548.924)"><stop offset="0" style="stop-color:#003d67;stop-opacity:1"/><stop offset="1" style="stop-color:#087385;stop-opacity:1"/></linearGradient><linearGradient id="_Linear9" x1="0" y1="0" x2="1" y2="0" gradientUnits="userSpaceOnUse" gradientTransform="matrix(3.36067e-14,-548.839,548.839,3.36067e-14,63.2858,548.924)"><stop offset="0" style="stop-color:#003d67;stop-opacity:1"/><stop offset="1" style="stop-color:#087385;stop-opacity:1"/></linearGradient><linearGradient id="_Linear10" x1="0" y1="0" x2="1" y2="0" gradientUnits="userSpaceOnUse" gradientTransform="matrix(3.36067e-14,-548.839,548.839,3.36067e-14,490.003,548.924)"><stop offset="0" style="stop-color:#003d67;stop-opacity:1"/><stop offset="1" style="stop-color:#087385;stop-opacity:1"/></linearGradient><linearGradient id="_Linear11" x1="0" y1="0" x2="1" y2="0" gradientUnits="userSpaceOnUse" gradientTransform="matrix(3.36067e-14,-548.839,548.839,3.36067e-14,418.258,548.924)"><stop offset="0" style="stop-color:#003d67;stop-opacity:1"/><stop offset="1" style="stop-color:#087385;stop-opacity:1"/></linearGradient><linearGradient id="_Linear12" x1="0" y1="0" x2="1" y2="0" gradientUnits="userSpaceOnUse" gradientTransform="matrix(3.36067e-14,-548.839,548.839,3.36067e-14,430.714,548.924)"><stop offset="0" style="stop-color:#003d67;stop-opacity:1"/><stop offset="1" style="stop-color:#087385;stop-opacity:1"/></linearGradient></defs></svg>