<?xml version="1.0" standalone="no"?>
<!DOCTYPE svg PUBLIC "-//W3C//DTD SVG 20010904//EN"
 "http://www.w3.org/TR/2001/REC-SVG-20010904/DTD/svg10.dtd">
<svg version="1.0" xmlns="http://www.w3.org/2000/svg"
 width="700.000000pt" height="700.000000pt" viewBox="0 0 700.000000 700.000000"
 preserveAspectRatio="xMidYMid meet">
<metadata>
Created by potrace 1.14, written by Peter Selinger 2001-2017
</metadata>
<g transform="translate(0.000000,700.000000) scale(0.100000,-0.100000)"
fill="#000000" stroke="none">
<path d="M0 6307 l0 -693 181 -174 c99 -96 218 -211 264 -255 244 -233 408
-389 480 -456 43 -41 115 -108 160 -150 44 -41 114 -106 155 -144 41 -38 82
-76 91 -84 9 -9 44 -41 79 -71 35 -30 68 -59 74 -65 6 -6 54 -49 106 -94 435
-382 846 -788 1045 -1032 11 -13 39 -47 61 -74 32 -39 148 -190 221 -290 41
-55 73 -105 73 -113 0 -6 4 -12 9 -14 14 -5 156 -247 230 -394 39 -76 97 -204
130 -283 32 -78 61 -139 63 -135 7 13 2 627 -6 709 -4 39 -9 102 -11 140 -3
39 -7 81 -10 95 -3 14 -7 45 -10 69 -13 109 -43 262 -80 413 -163 652 -459
1184 -985 1773 -80 89 -482 488 -600 595 -63 57 -133 120 -155 140 -22 20 -65
58 -95 85 -30 26 -88 77 -128 113 -40 36 -128 110 -195 164 -67 55 -131 107
-142 116 -81 67 -132 109 -145 119 -45 36 -500 407 -544 444 -130 108 -297
239 -305 239 -8 0 -11 -215 -11 -693z"/>
<path d="M415 6991 c-4 -3 196 -166 771 -630 124 -100 302 -249 335 -281 16
-16 40 -37 178 -160 320 -284 679 -638 856 -845 33 -39 63 -72 66 -75 18 -16
231 -290 293 -380 182 -258 360 -587 467 -862 19 -49 37 -88 40 -88 7 0 3 646
-5 725 -3 33 -8 89 -11 125 -7 73 -32 261 -40 300 -3 14 -10 50 -16 80 -5 30
-12 66 -15 80 -29 147 -112 418 -187 609 -86 221 -266 554 -405 751 -88 125
-258 348 -282 370 -3 3 -18 21 -34 40 -15 19 -63 73 -105 119 -42 46 -84 93
-94 104 -18 21 -23 21 -913 21 -493 1 -897 -1 -899 -3z"/>
<path d="M2530 6996 c0 -2 14 -19 30 -37 197 -218 469 -598 598 -834 63 -114
179 -360 217 -458 20 -53 40 -99 44 -102 4 -2 7 141 6 318 -3 351 -8 458 -36
672 -19 151 -15 125 -76 418 l-5 27 -389 0 c-214 0 -389 -2 -389 -4z"/>
<path d="M3776 6983 c-6 -21 -26 -108 -31 -138 -37 -206 -49 -287 -60 -395 -3
-30 -8 -73 -11 -95 -10 -80 -14 -811 -4 -790 5 11 26 63 46 115 49 128 201
439 265 540 163 260 338 505 446 625 10 11 44 51 76 88 l59 67 -390 0 c-363 0
-391 -1 -396 -17z"/>
<path d="M4849 6963 c-56 -62 -203 -227 -224 -254 -194 -237 -348 -454 -459
-649 -58 -101 -190 -375 -229 -475 -62 -160 -146 -428 -163 -525 -3 -14 -7
-33 -10 -42 -6 -20 -9 -33 -49 -248 -3 -17 -24 -184 -30 -245 -14 -139 -18
-236 -19 -534 -2 -282 0 -330 11 -305 7 16 40 94 74 174 206 488 490 911 928
1379 64 69 121 129 127 135 6 6 74 72 150 146 177 172 278 265 449 415 44 39
82 73 85 76 22 24 212 185 395 334 121 99 225 184 231 190 14 12 36 30 94 75
24 19 52 42 60 50 9 8 33 29 54 45 56 43 328 265 346 281 12 12 -124 14 -886
14 l-901 0 -34 -37z"/>
<path d="M6605 6628 c-204 -165 -386 -313 -405 -329 -243 -197 -403 -329 -440
-362 -25 -22 -66 -59 -91 -81 -25 -23 -83 -75 -129 -116 -491 -440 -829 -791
-1069 -1110 -39 -52 -74 -99 -79 -105 -10 -14 -144 -216 -159 -240 -213 -353
-346 -664 -443 -1038 -22 -84 -42 -168 -45 -187 -3 -19 -10 -51 -15 -70 -9
-35 -13 -63 -26 -155 -3 -27 -8 -58 -10 -69 -2 -10 -6 -53 -9 -95 -4 -42 -9
-87 -12 -101 -3 -14 -7 -203 -9 -420 l-5 -395 51 125 c110 271 262 556 418
785 320 468 679 848 1422 1505 52 46 109 96 125 111 17 15 44 40 60 55 26 23
111 102 290 269 22 21 109 103 194 184 85 80 170 161 190 180 20 18 124 118
231 221 107 103 229 219 270 258 l74 71 1 701 c0 386 -2 703 -5 705 -3 2 -172
-132 -375 -297z"/>
<path d="M0 4588 l0 -691 94 -116 c93 -114 132 -161 159 -191 7 -8 40 -46 72
-85 33 -38 62 -72 65 -75 3 -3 39 -43 80 -90 41 -46 84 -94 95 -106 11 -12 74
-79 140 -150 151 -162 422 -432 550 -549 54 -49 105 -97 114 -106 9 -8 95 -85
191 -170 96 -84 180 -158 186 -164 6 -5 55 -50 110 -100 189 -173 470 -451
605 -600 30 -33 61 -67 70 -75 34 -33 227 -271 304 -375 207 -279 389 -590
500 -854 27 -65 35 -74 58 -75 15 -1 28 3 30 9 11 30 -4 617 -18 715 -2 14 -6
54 -10 90 -3 36 -10 90 -15 120 -5 30 -11 71 -14 90 -3 19 -8 46 -11 60 -2 14
-10 50 -16 80 -10 52 -39 165 -73 290 -148 541 -485 1123 -936 1615 -75 82
-449 455 -535 535 -75 69 -222 202 -258 233 -27 23 -146 128 -161 142 -7 6
-50 44 -96 85 -47 41 -90 79 -96 85 -6 5 -46 42 -90 82 -43 39 -107 98 -140
130 -34 32 -119 113 -190 179 -176 166 -376 357 -687 657 -38 37 -71 67 -73
67 -2 0 -4 -311 -4 -692z"/>
<path d="M6869 5077 c-132 -128 -461 -442 -500 -478 -33 -31 -251 -233 -300
-279 -20 -19 -57 -53 -81 -74 -23 -22 -68 -62 -98 -90 -30 -28 -91 -83 -135
-122 -167 -149 -292 -259 -335 -298 -24 -23 -71 -66 -105 -96 -92 -84 -504
-497 -568 -570 -32 -36 -66 -74 -75 -85 -278 -314 -542 -725 -699 -1090 -129
-297 -225 -642 -267 -955 -3 -25 -8 -54 -10 -65 -2 -11 -7 -54 -11 -95 -4 -41
-9 -88 -12 -105 -2 -16 -6 -171 -10 -343 l-6 -312 32 0 c30 0 34 4 59 63 55
131 194 398 276 531 154 249 343 500 554 736 105 117 493 505 622 620 52 47
109 99 128 115 18 17 47 44 65 60 18 17 61 55 97 85 35 30 71 62 80 70 9 8 52
47 95 85 43 39 104 92 134 120 69 61 524 516 606 605 90 97 221 242 245 270
80 92 326 385 333 395 4 8 6 328 5 714 l-3 700 -116 -112z"/>
<path d="M0 2722 l0 -792 52 -68 c29 -37 58 -71 64 -77 6 -5 17 -19 25 -31 13
-20 79 -96 203 -233 79 -89 468 -474 591 -586 54 -49 103 -94 109 -100 6 -5
51 -46 101 -90 49 -44 105 -94 125 -112 19 -17 46 -41 60 -52 14 -12 41 -36
60 -54 19 -18 73 -66 120 -107 47 -41 90 -79 96 -85 6 -5 46 -41 89 -80 44
-38 104 -93 134 -121 31 -29 74 -68 95 -88 l40 -36 568 0 c359 0 568 4 568 10
0 29 -158 330 -260 495 -135 220 -388 545 -579 746 -185 193 -378 383 -556
545 -133 122 -149 136 -225 202 -35 32 -74 66 -85 77 -12 11 -37 33 -56 49
-184 154 -569 528 -819 796 -69 74 -135 144 -147 157 -13 13 -98 110 -189 216
-92 106 -171 196 -175 202 -5 5 -9 -336 -9 -783z"/>
<path d="M6943 3353 c-38 -48 -196 -225 -322 -363 -184 -201 -636 -647 -797
-787 -12 -10 -54 -47 -94 -83 -40 -36 -81 -72 -90 -80 -44 -38 -166 -147 -180
-160 -9 -8 -68 -62 -131 -120 -123 -112 -447 -434 -544 -540 -243 -265 -463
-561 -623 -840 -54 -94 -182 -351 -182 -364 0 -4 260 -6 578 -6 l577 0 40 38
c22 20 85 77 140 127 55 50 120 108 144 130 56 51 50 46 156 140 50 44 92 82
95 85 3 3 46 41 95 85 50 44 92 82 95 85 3 3 43 39 90 80 46 41 92 82 101 90
9 8 65 60 125 115 125 114 453 440 534 531 106 117 125 139 170 194 25 30 49
58 55 62 11 8 15 1618 4 1618 -3 0 -19 -17 -36 -37z"/>
<path d="M0 782 l0 -772 803 0 802 1 -40 36 c-22 20 -62 57 -90 82 -27 26 -83
76 -124 111 -41 36 -82 72 -91 80 -9 8 -52 47 -95 85 -43 39 -83 75 -89 80 -6
6 -54 48 -106 95 -52 47 -104 94 -116 105 -11 11 -79 74 -149 140 -242 226
-529 522 -697 720 -4 5 -8 -338 -8 -763z"/>
<path d="M6899 1329 c-47 -52 -138 -146 -201 -209 -177 -178 -292 -287 -573
-541 -27 -25 -161 -142 -296 -261 -281 -246 -329 -290 -329 -298 0 -7 1477 -6
1484 1 4 3 5 320 4 703 l-3 698 -86 -93z"/>
</g>
</svg>
