<?xml version="1.0" encoding="UTF-8" standalone="no"?><!DOCTYPE svg PUBLIC "-//W3C//DTD SVG 1.1//EN" "http://www.w3.org/Graphics/SVG/1.1/DTD/svg11.dtd"><svg width="100%" height="100%" viewBox="0 0 700 800" version="1.1" xmlns="http://www.w3.org/2000/svg" xmlns:xlink="http://www.w3.org/1999/xlink" xml:space="preserve" xmlns:serif="http://www.serif.com/" style="fill-rule:evenodd;clip-rule:evenodd;stroke-linejoin:round;stroke-miterlimit:2;"><path d="M333.82,3.325c-16.9,9.783 -328.137,271.942 -332.637,280.35l-0,420.713l11.625,23.675c13.17,26.82 33.358,46.391 61.079,59.216c18.629,8.621 23.458,8.775 275.213,8.775c251.754,0 256.583,-0.154 275.213,-8.775c27.72,-12.825 47.908,-32.396 61.079,-59.216l11.625,-23.675l1.27,-420.713c-112.887,-95.633 -320.875,-272.604 -324.462,-275.679c-9.663,-8.283 -29.721,-10.629 -40.005,-4.671Zm289.822,313.563l-135.155,-114.571c-74.333,-63.017 -136.575,-115.042 -138.312,-115.617c-1.738,-0.571 -64.467,50.983 -139.4,114.575l-136.243,115.613l-0.216,184.583c-0.238,202.562 -0.25,202.471 24.646,215.346c8.65,4.475 25.02,6.321 56.008,6.321l43.788,-0l1.212,-128.871c1.159,-123.229 1.596,-129.384 9.93,-140.625c4.795,-6.463 14.916,-15.971 22.491,-21.13c13.367,-9.095 16.821,-9.375 116.709,-9.375c99.887,0 103.342,0.28 116.708,9.375c7.575,5.159 17.696,14.667 22.492,21.13c8.333,11.241 8.771,17.396 9.929,140.625l1.213,128.87l43.787,0c30.988,0 47.358,-1.845 56.008,-6.32c24.896,-12.875 24.884,-12.779 24.634,-215.346l-0.229,-184.584Zm-199.542,406.251l-0,-225l-150,-0l-0,225l150,-0Z"/></svg>