<?xml version="1.0" encoding="utf-8"?>
<!-- Generator: Adobe Illustrator 26.3.1, SVG Export Plug-In . SVG Version: 6.00 Build 0)  -->
<svg version="1.1" id="Ebene_1" xmlns="http://www.w3.org/2000/svg" xmlns:xlink="http://www.w3.org/1999/xlink" x="0px" y="0px"
	 viewBox="0 0 237.3 140.4" style="enable-background:new 0 0 237.3 140.4;" xml:space="preserve">
<style type="text/css">
	.st0{fill:none;}
	.st1{fill:url(#SVGID_1_);}
	.st2{fill:url(#SVGID_00000047022872000721777660000018027347342736848782_);}
	.st3{fill:url(#SVGID_00000164502302321227896640000017099230071046905491_);}
	.st4{fill:url(#SVGID_00000164490162322212355890000016768127978442824322_);}
	.st5{fill:url(#SVGID_00000048483464277651137120000002212048003173543096_);}
	.st6{fill:url(#SVGID_00000052076622731430976820000015139689117415333028_);}
	.st7{fill:url(#SVGID_00000034769883502890564490000006581450855414690730_);}
	.st8{fill:url(#SVGID_00000070078025916146868950000012719652562372650647_);}
	.st9{fill:url(#SVGID_00000026841977562125697220000017157089866150887353_);}
	.st10{fill:url(#SVGID_00000183937314087135104840000006816519199875542946_);}
	.st11{fill:url(#SVGID_00000009570486001718341460000001073355524583611273_);}
	.st12{fill:url(#SVGID_00000079443578797846513460000000712580170649986708_);}
</style>
<g>
	<path d="M38.1,42.5H24.3c-3.5,0-6.7-0.9-9.6-2.6c-2.9-1.7-5.2-4-7-7c-1.7-2.9-2.6-6.2-2.6-9.7c0-3.5,0.9-6.7,2.6-9.6
		c1.7-2.9,4-5.3,7-7c2.9-1.7,6.1-2.6,9.6-2.6c2.6,0,5.2,0.5,7.6,1.6c2.4,1.1,4.5,2.6,6.3,4.6l-1.9,1.8c-1.6-1.7-3.4-3-5.5-3.9
		c-2.1-0.9-4.3-1.4-6.5-1.4c-3,0-5.7,0.7-8.2,2.2c-2.5,1.5-4.5,3.5-6,6c-1.5,2.5-2.2,5.3-2.2,8.3c0,3,0.7,5.8,2.2,8.3
		c1.5,2.5,3.5,4.5,6,6c2.5,1.5,5.3,2.2,8.2,2.2h11V26.3H22.8v-2.6h15.2V42.5z"/>
	<path d="M71.8,42.5L56.1,23.3h4.7c2.9,0,5.2-0.4,7-1.1c1.3-0.6,2.5-1.6,3.4-2.8c1-1.3,1.5-2.7,1.5-4.2c0-1.4-0.4-2.7-1.2-3.9
		c-0.8-1.2-2-2.2-3.5-3c-1.5-0.8-3.3-1.2-5.3-1.2H52v35.3h-2.6v-38h13.3c1.8,0,3.5,0.3,5,0.8c1.6,0.6,2.9,1.4,4.1,2.4
		c1.1,1,2,2.2,2.6,3.4c0.6,1.3,0.9,2.6,0.9,4c0,2.1-0.6,4.1-1.9,5.8s-2.8,2.9-4.6,3.7c-1.2,0.5-2.4,0.9-3.5,1
		c-1.1,0.1-2.4,0.2-3.7,0.2l13.7,16.6H71.8z"/>
	<path d="M85.6,42.5v-38h24.6v2.7h-22v15h17.1v2.7H88.2v14.9h22v2.7H85.6z"/>
	<path d="M150.8,42.5h-13.7c-3.5,0-6.7-0.9-9.6-2.6c-2.9-1.7-5.2-4-7-7c-1.7-2.9-2.6-6.2-2.6-9.7c0-3.5,0.9-6.7,2.6-9.6
		c1.7-2.9,4-5.3,7-7c2.9-1.7,6.1-2.6,9.6-2.6c2.6,0,5.2,0.5,7.6,1.6c2.4,1.1,4.5,2.6,6.3,4.6l-1.9,1.8c-1.6-1.7-3.4-3-5.5-3.9
		c-2.1-0.9-4.3-1.4-6.5-1.4c-3,0-5.7,0.7-8.2,2.2c-2.5,1.5-4.5,3.5-6,6c-1.5,2.5-2.2,5.3-2.2,8.3c0,3,0.7,5.8,2.2,8.3
		c1.5,2.5,3.5,4.5,6,6c2.5,1.5,5.3,2.2,8.2,2.2h11V26.3h-12.5v-2.6h15.2V42.5z"/>
	<path d="M178.7,42.9c-3.5,0-6.7-0.9-9.6-2.6c-3-1.7-5.3-4.1-7-7.1c-1.7-3-2.6-6.2-2.6-9.7c0-3.5,0.9-6.7,2.6-9.7c1.7-3,4-5.3,7-7.1
		c3-1.7,6.2-2.6,9.6-2.6c3.5,0,6.7,0.9,9.6,2.6c3,1.7,5.3,4.1,7,7.1c1.7,3,2.6,6.2,2.6,9.7c0,3.5-0.9,6.7-2.6,9.7
		c-1.7,3-4,5.3-7,7.1C185.3,42,182.1,42.9,178.7,42.9z M178.7,6.8c-3,0-5.8,0.8-8.3,2.2c-2.5,1.5-4.5,3.5-6,6.1
		c-1.5,2.6-2.2,5.3-2.2,8.4c0,3,0.7,5.8,2.2,8.4c1.5,2.6,3.5,4.6,6,6.1c2.5,1.5,5.3,2.2,8.3,2.2c3,0,5.8-0.7,8.3-2.2
		c2.5-1.5,4.5-3.5,6-6.1c1.5-2.5,2.2-5.3,2.2-8.4c0-3-0.7-5.8-2.2-8.4c-1.5-2.6-3.5-4.6-6-6.1C184.4,7.6,181.7,6.8,178.7,6.8z"/>
	<path d="M228.9,42.5l-15.8-19.2h4.7c2.9,0,5.2-0.4,7-1.1c1.3-0.6,2.5-1.6,3.4-2.8c1-1.3,1.5-2.7,1.5-4.2c0-1.4-0.4-2.7-1.2-3.9
		c-0.8-1.2-2-2.2-3.5-3c-1.5-0.8-3.3-1.2-5.3-1.2h-10.6v35.3h-2.6v-38h13.3c1.8,0,3.5,0.3,5,0.8c1.6,0.6,2.9,1.4,4.1,2.4
		c1.1,1,2,2.2,2.6,3.4c0.6,1.3,0.9,2.6,0.9,4c0,2.1-0.6,4.1-1.9,5.8s-2.8,2.9-4.6,3.7c-1.2,0.5-2.4,0.9-3.5,1
		c-1.1,0.1-2.4,0.2-3.7,0.2l13.7,16.6H228.9z"/>
	<path d="M37,101.4h-3.5L19.8,85.3L7.6,102.1V63.5h2.6v30.4l22.1-30.4h3.3L21.4,83L37,101.4z"/>
	<path d="M59.4,101.8c-3.5,0-6.7-0.9-9.6-2.6c-3-1.7-5.3-4.1-7-7.1c-1.7-3-2.6-6.2-2.6-9.7c0-3.5,0.9-6.7,2.6-9.7c1.7-3,4-5.3,7-7.1
		c3-1.7,6.2-2.6,9.6-2.6c3.5,0,6.7,0.9,9.6,2.6c3,1.7,5.3,4.1,7,7.1c1.7,3,2.6,6.2,2.6,9.7c0,3.5-0.9,6.7-2.6,9.7
		c-1.7,3-4,5.3-7,7.1C66.1,101,62.9,101.8,59.4,101.8z M59.4,65.7c-3,0-5.8,0.8-8.3,2.2c-2.5,1.5-4.5,3.5-6,6.1
		c-1.5,2.6-2.2,5.3-2.2,8.4c0,3,0.7,5.8,2.2,8.4c1.5,2.6,3.5,4.6,6,6.1c2.5,1.5,5.3,2.2,8.3,2.2c3,0,5.8-0.7,8.3-2.2
		c2.5-1.5,4.5-3.5,6-6.1c1.5-2.5,2.2-5.3,2.2-8.4c0-3-0.7-5.8-2.2-8.4c-1.5-2.6-3.5-4.6-6-6.1C65.2,66.5,62.4,65.7,59.4,65.7z"/>
	<path d="M105.1,101.8c-3.5,0-6.7-0.9-9.6-2.6c-3-1.8-5.3-4.1-7-7.1s-2.6-6.2-2.6-9.7c0-3.5,0.9-6.7,2.6-9.7c1.7-3,4-5.3,7-7.1
		c3-1.8,6.2-2.6,9.6-2.6c2.7,0,5.3,0.6,7.7,1.7c2.5,1.1,4.6,2.7,6.5,4.7l-2,1.8c-1.6-1.8-3.4-3.1-5.5-4.1c-2.1-1-4.4-1.5-6.7-1.5
		c-3,0-5.8,0.8-8.3,2.2c-2.5,1.5-4.5,3.5-6,6.1c-1.5,2.6-2.2,5.4-2.2,8.4c0,3,0.7,5.8,2.2,8.4c1.5,2.6,3.5,4.6,6,6.1
		c2.5,1.5,5.3,2.2,8.3,2.2c2.5,0,4.9-0.5,7.1-1.6c2.2-1.1,4.2-2.6,5.8-4.6l2.1,1.6c-1.8,2.3-4.1,4.1-6.7,5.3
		C110.8,101.2,108,101.8,105.1,101.8z"/>
	<path d="M155.3,83.8h-22.4v17.6h-2.7V81.1V63.5h2.7v17.6h22.4V63.5h2.6v18.9v19h-2.6V83.8z"/>
	<path d="M170.8,101.4v-38h24.6v2.7h-22v15h17.1v2.7h-17.1v14.9h22v2.7H170.8z"/>
	<path d="M228.4,101.4l-15.8-19.2h4.7c2.9,0,5.2-0.4,7-1.1c1.3-0.6,2.5-1.6,3.4-2.8c1-1.3,1.5-2.7,1.5-4.2c0-1.4-0.4-2.7-1.2-3.9
		c-0.8-1.2-2-2.2-3.5-3c-1.5-0.8-3.3-1.2-5.3-1.2h-10.6v35.3H206v-38h13.3c1.8,0,3.5,0.3,5,0.8c1.6,0.6,2.9,1.4,4.1,2.4
		c1.1,1,2,2.2,2.6,3.4c0.6,1.3,0.9,2.6,0.9,4c0,2.1-0.6,4.1-1.9,5.8s-2.8,2.9-4.6,3.7c-1.2,0.5-2.4,0.9-3.5,1
		c-1.1,0.1-2.4,0.2-3.7,0.2l13.7,16.6H228.4z"/>
	<path d="M18,119.5v1.2h-6.6v15.5h-1.2v-15.5H3.6v-1.2H18z"/>
	<path d="M32.8,128.4h-9.8v7.7h-1.2v-8.9v-7.7h1.2v7.7h9.8v-7.7h1.2v8.3v8.3h-1.2V128.4z"/>
	<path d="M46.2,136.3c-1.5,0-2.9-0.4-4.2-1.1c-1.3-0.8-2.3-1.8-3.1-3.1s-1.1-2.7-1.1-4.3c0-1.5,0.4-3,1.1-4.3s1.8-2.3,3.1-3.1
		c1.3-0.8,2.7-1.1,4.2-1.1s2.9,0.4,4.2,1.1c1.3,0.8,2.3,1.8,3.1,3.1s1.1,2.7,1.1,4.3c0,1.5-0.4,3-1.1,4.3s-1.8,2.3-3.1,3.1
		C49.1,136,47.7,136.3,46.2,136.3z M46.2,120.5c-1.3,0-2.5,0.3-3.6,1c-1.1,0.7-2,1.5-2.6,2.7c-0.7,1.1-1,2.3-1,3.7
		c0,1.3,0.3,2.6,1,3.7c0.7,1.1,1.5,2,2.6,2.7c1.1,0.7,2.3,1,3.6,1s2.5-0.3,3.6-1c1.1-0.7,2-1.5,2.6-2.7c0.6-1.1,1-2.3,1-3.7
		c0-1.3-0.3-2.6-1-3.7c-0.6-1.1-1.5-2-2.6-2.7C48.7,120.8,47.5,120.5,46.2,120.5z"/>
	<path d="M68.2,136.2l-6.9-8.4h2c1.3,0,2.3-0.2,3.1-0.5c0.6-0.3,1.1-0.7,1.5-1.2c0.4-0.6,0.6-1.2,0.6-1.8c0-0.6-0.2-1.2-0.5-1.7
		s-0.9-1-1.5-1.3c-0.7-0.3-1.4-0.5-2.3-0.5h-4.7v15.5h-1.2v-16.6h5.8c0.8,0,1.5,0.1,2.2,0.4c0.7,0.2,1.3,0.6,1.8,1.1
		c0.5,0.4,0.9,0.9,1.1,1.5c0.3,0.6,0.4,1.1,0.4,1.7c0,0.9-0.3,1.8-0.8,2.5c-0.6,0.7-1.2,1.3-2,1.6c-0.5,0.2-1,0.4-1.5,0.4
		c-0.5,0.1-1,0.1-1.6,0.1l6,7.3H68.2z"/>
	<path d="M76.1,131.9l-2,4.2h-1.3l7.8-16.8l7.4,16.8h-1.3l-1.9-4.2H76.1z M80.7,122.2l-4,8.6h7.8L80.7,122.2z"/>
	<path d="M104,119.5l-5.9,8.3l5.9,8.3h-1.4l-5.2-7.3l-5.2,7.3h-1.4l5.9-8.3l-5.9-8.3h1.4l5.2,7.3l5.2-7.3H104z"/>
	<path d="M113.6,136.3c-1.5,0-2.9-0.4-4.2-1.2s-2.3-1.8-3.1-3.1c-0.8-1.3-1.1-2.7-1.1-4.3s0.4-3,1.1-4.2c0.8-1.3,1.8-2.3,3.1-3.1
		s2.7-1.2,4.2-1.2c1.2,0,2.3,0.2,3.4,0.7c1.1,0.5,2,1.2,2.9,2.1l-0.9,0.8c-0.7-0.8-1.5-1.4-2.4-1.8c-0.9-0.4-1.9-0.6-2.9-0.6
		c-1.3,0-2.5,0.3-3.6,1c-1.1,0.7-2,1.5-2.6,2.7c-0.7,1.1-1,2.4-1,3.7c0,1.3,0.3,2.6,1,3.7c0.7,1.1,1.5,2,2.6,2.7
		c1.1,0.7,2.3,1,3.6,1c1.1,0,2.1-0.2,3.1-0.7c1-0.5,1.8-1.1,2.5-2l0.9,0.7c-0.8,1-1.8,1.8-2.9,2.3
		C116.1,136.1,114.9,136.3,113.6,136.3z"/>
	<path d="M134.9,128.4h-9.8v7.7h-1.2v-8.9v-7.7h1.2v7.7h9.8v-7.7h1.2v8.3v8.3h-1.2V128.4z"/>
	<path d="M141.3,136.2v-16.6h1.2v16.6H141.3z"/>
	<path d="M157.6,136.2l-6.9-8.4h2c1.3,0,2.3-0.2,3.1-0.5c0.6-0.3,1.1-0.7,1.5-1.2c0.4-0.6,0.6-1.2,0.6-1.8c0-0.6-0.2-1.2-0.5-1.7
		s-0.9-1-1.5-1.3c-0.7-0.3-1.4-0.5-2.3-0.5h-4.7v15.5h-1.2v-16.6h5.8c0.8,0,1.5,0.1,2.2,0.4c0.7,0.2,1.3,0.6,1.8,1.1
		c0.5,0.4,0.9,0.9,1.1,1.5c0.3,0.6,0.4,1.1,0.4,1.7c0,0.9-0.3,1.8-0.8,2.5c-0.6,0.7-1.2,1.3-2,1.6c-0.5,0.2-1,0.4-1.5,0.4
		c-0.5,0.1-1,0.1-1.6,0.1l6,7.3H157.6z"/>
	<path d="M169.9,136.3c-0.8,0-1.6-0.2-2.4-0.5c-0.8-0.3-1.5-0.8-2.1-1.4c-0.6-0.6-1.1-1.3-1.4-2c-0.3-0.8-0.5-1.6-0.5-2.5v-10.4h1.2
		v10.4c0,0.7,0.1,1.4,0.4,2c0.3,0.6,0.6,1.2,1.1,1.7c0.5,0.5,1.1,0.9,1.7,1.1c0.6,0.3,1.3,0.4,2,0.4c0.7,0,1.4-0.1,2-0.4
		c0.6-0.3,1.2-0.6,1.7-1.1c0.5-0.5,0.8-1,1.1-1.7c0.3-0.6,0.4-1.3,0.4-2v-10.4h1.2v10.4c0,0.9-0.2,1.7-0.5,2.5
		c-0.3,0.8-0.8,1.5-1.4,2c-0.6,0.6-1.3,1.1-2,1.4C171.6,136.2,170.8,136.3,169.9,136.3z"/>
	<path d="M190.8,136.2l-6.9-8.4h2c1.3,0,2.3-0.2,3.1-0.5c0.6-0.3,1.1-0.7,1.5-1.2c0.4-0.6,0.6-1.2,0.6-1.8c0-0.6-0.2-1.2-0.5-1.7
		s-0.9-1-1.5-1.3c-0.7-0.3-1.4-0.5-2.3-0.5h-4.7v15.5h-1.2v-16.6h5.8c0.8,0,1.5,0.1,2.2,0.4c0.7,0.2,1.3,0.6,1.8,1.1
		c0.5,0.4,0.9,0.9,1.1,1.5c0.3,0.6,0.4,1.1,0.4,1.7c0,0.9-0.3,1.8-0.8,2.5c-0.6,0.7-1.2,1.3-2,1.6c-0.5,0.2-1,0.4-1.5,0.4
		c-0.5,0.1-1,0.1-1.6,0.1l6,7.3H190.8z"/>
	<path d="M209.9,136.2h-6c-1.5,0-2.9-0.4-4.2-1.1c-1.3-0.8-2.3-1.8-3-3.1s-1.1-2.7-1.1-4.2c0-1.5,0.4-2.9,1.1-4.2
		c0.8-1.3,1.8-2.3,3-3.1c1.3-0.8,2.7-1.1,4.2-1.1c1.2,0,2.3,0.2,3.3,0.7c1.1,0.5,2,1.1,2.8,2l-0.8,0.8c-0.7-0.7-1.5-1.3-2.4-1.7
		c-0.9-0.4-1.9-0.6-2.9-0.6c-1.3,0-2.5,0.3-3.6,1c-1.1,0.6-2,1.5-2.6,2.6c-0.6,1.1-1,2.3-1,3.6c0,1.3,0.3,2.5,1,3.6
		c0.6,1.1,1.5,2,2.6,2.6c1.1,0.7,2.3,1,3.6,1h4.8v-6h-5.5v-1.2h6.7V136.2z"/>
	<path d="M215.1,136.2v-16.6h1.2v16.6H215.1z"/>
	<path d="M221.4,136.2v-16.6h10.8v1.2h-9.6v6.6h7.5v1.2h-7.5v6.5h9.6v1.2H221.4z"/>
</g>
</svg>
