<?xml version="1.0" encoding="UTF-8" standalone="no"?><!DOCTYPE svg PUBLIC "-//W3C//DTD SVG 1.1//EN" "http://www.w3.org/Graphics/SVG/1.1/DTD/svg11.dtd"><svg width="100%" height="100%" viewBox="0 0 1579 585" version="1.1" xmlns="http://www.w3.org/2000/svg" xmlns:xlink="http://www.w3.org/1999/xlink" xml:space="preserve" xmlns:serif="http://www.serif.com/" style="fill-rule:evenodd;clip-rule:evenodd;stroke-linejoin:round;stroke-miterlimit:2;"><g><clipPath id="_clip1"><rect x="11.577" y="16.216" width="1548.27" height="552.949"/></clipPath><g clip-path="url(#_clip1)"><g><path d="M748.287,177.083l-57.5,0c-14.584,0 -27.917,-3.75 -40,-10.833c-12.084,-7.083 -21.667,-16.667 -29.167,-29.167c-7.083,-12.083 -10.833,-25.833 -10.833,-40.416c-0,-14.584 3.75,-27.917 10.833,-40c7.083,-12.084 16.667,-22.084 29.167,-29.167c12.083,-7.083 25.416,-10.833 40,-10.833c10.833,-0 21.666,2.083 31.666,6.666c10,4.584 18.75,10.834 26.25,19.167l-7.916,7.5c-6.667,-7.083 -14.167,-12.5 -22.917,-16.25c-8.75,-3.75 -17.917,-5.833 -27.083,-5.833c-12.5,-0 -23.75,2.916 -34.167,9.166c-10.417,6.25 -18.75,14.584 -25,25c-6.25,10.417 -9.167,22.084 -9.167,34.584c0,12.5 2.917,24.166 9.167,34.583c6.25,10.417 14.583,18.75 25,25c10.417,6.25 22.083,9.167 34.167,9.167l45.833,-0l0,-55.834l-52.083,0l-0,-10.833l63.333,0l0,78.333l0.417,0Z" style="fill-rule:nonzero;"/><path d="M888.703,177.083l-65.416,-80l19.583,0c12.083,0 21.667,-1.666 29.167,-4.583c5.416,-2.5 10.416,-6.667 14.166,-11.667c4.167,-5.416 6.25,-11.25 6.25,-17.5c0,-5.833 -1.666,-11.25 -5,-16.25c-3.333,-5 -8.333,-9.166 -14.583,-12.5c-6.25,-3.333 -13.75,-5 -22.083,-5l-44.584,0l0,147.084l-10.833,-0l0,-158.334l55.417,0c7.5,0 14.583,1.25 20.833,3.334c6.667,2.5 12.083,5.833 17.083,10c4.584,4.166 8.334,9.166 10.834,14.166c2.5,5.417 3.75,10.834 3.75,16.667c-0,8.75 -2.5,17.083 -7.917,24.167c-5.417,7.083 -11.667,12.083 -19.167,15.416c-5,2.084 -10,3.75 -14.583,4.167c-4.583,0.417 -10,0.833 -15.417,0.833l57.084,69.167l-14.584,0l0,0.833Z" style="fill-rule:nonzero;"/><path d="M946.203,177.083l0,-158.333l102.5,0l0,11.25l-91.666,0l-0,62.5l71.25,0l-0,11.25l-71.25,0l-0,62.083l91.666,0l0,11.25l-102.5,0Z" style="fill-rule:nonzero;"/><path d="M1217.87,177.083l-57.083,0c-14.584,0 -27.917,-3.75 -40,-10.833c-12.084,-7.083 -21.667,-16.667 -29.167,-29.167c-7.083,-12.083 -10.833,-25.833 -10.833,-40.416c-0,-14.584 3.75,-27.917 10.833,-40c7.083,-12.084 16.667,-22.084 29.167,-29.167c12.083,-7.083 25.416,-10.833 40,-10.833c10.833,-0 21.666,2.083 31.666,6.666c10,4.584 18.75,10.834 26.25,19.167l-7.916,7.5c-6.667,-7.083 -14.167,-12.5 -22.917,-16.25c-8.75,-3.75 -17.917,-5.833 -27.083,-5.833c-12.5,-0 -23.75,2.916 -34.167,9.166c-10.417,6.25 -18.75,14.584 -25,25c-6.25,10.417 -9.167,22.084 -9.167,34.584c0,12.5 2.917,24.166 9.167,34.583c6.25,10.417 14.583,18.75 25,25c10.417,6.25 22.083,9.167 34.167,9.167l45.833,-0l0,-55.834l-52.083,0l-0,-10.833l63.333,0l0,78.333Z" style="fill-rule:nonzero;"/><path d="M1334.12,178.75c-14.583,0 -27.917,-3.75 -40,-10.833c-12.5,-7.084 -22.083,-17.084 -29.167,-29.584c-7.083,-12.5 -10.833,-25.833 -10.833,-40.416c0,-14.584 3.75,-27.917 10.833,-40.417c7.084,-12.5 16.667,-22.083 29.167,-29.583c12.5,-7.084 25.833,-10.834 40,-10.834c14.583,0 27.917,3.75 40,10.834c12.5,7.083 22.083,17.083 29.167,29.583c7.083,12.5 10.833,25.833 10.833,40.417c0,14.583 -3.75,27.916 -10.833,40.416c-7.084,12.5 -16.667,22.084 -29.167,29.584c-12.5,7.083 -25.833,10.833 -40,10.833Zm0,-150.417c-12.5,0 -24.167,3.334 -34.583,9.167c-10.417,6.25 -18.75,14.583 -25,25.417c-6.25,10.833 -9.167,22.083 -9.167,35c0,12.5 2.917,24.166 9.167,35c6.25,10.833 14.583,19.166 25,25.416c10.416,6.25 22.083,9.167 34.583,9.167c12.5,0 24.167,-2.917 34.583,-9.167c10.417,-6.25 18.75,-14.583 25,-25.416c6.25,-10.417 9.167,-22.084 9.167,-35c0,-12.5 -2.917,-24.167 -9.167,-35c-6.25,-10.834 -14.583,-19.167 -25,-25.417c-10.833,-5.833 -22.083,-9.167 -34.583,-9.167Z" style="fill-rule:nonzero;"/><path d="M1543.29,177.083l-65.834,-80l19.584,0c12.083,0 21.666,-1.666 29.166,-4.583c5.417,-2.5 10.417,-6.667 14.167,-11.667c4.167,-5.416 6.25,-11.25 6.25,-17.5c0,-5.833 -1.667,-11.25 -5,-16.25c-3.333,-5 -8.333,-9.166 -14.583,-12.5c-6.25,-3.333 -13.75,-5 -22.084,-5l-44.166,0l-0,147.084l-10.834,-0l0,-158.334l55.417,0c7.5,0 14.583,1.25 20.833,3.334c6.667,2.5 12.084,5.833 17.084,10c4.583,4.166 8.333,9.166 10.833,14.166c2.5,5.417 3.75,10.834 3.75,16.667c0,8.75 -2.5,17.083 -7.917,24.167c-5.416,7.083 -11.666,12.083 -19.166,15.416c-5,2.084 -10,3.75 -14.584,4.167c-4.583,0.417 -10,0.833 -15.416,0.833l57.083,69.167l-14.583,0l-0,0.833Z" style="fill-rule:nonzero;"/><path d="M743.703,422.5l-14.583,0l-57.083,-67.083l-50.834,70l0,-160.834l10.834,0l-0,126.667l92.083,-126.667l13.75,0l-59.167,81.25l65,76.667Z" style="fill-rule:nonzero;"/><path d="M837.037,424.167c-14.584,-0 -27.917,-3.75 -40,-10.834c-12.5,-7.083 -22.084,-17.083 -29.167,-29.583c-7.083,-12.5 -10.833,-25.833 -10.833,-40.417c-0,-14.583 3.75,-27.916 10.833,-40.416c7.083,-12.5 16.667,-22.084 29.167,-29.584c12.5,-7.083 25.833,-10.833 40,-10.833c14.583,0 27.916,3.75 40,10.833c12.5,7.084 22.083,17.084 29.166,29.584c7.084,12.5 10.834,25.833 10.834,40.416c-0,14.584 -3.75,27.917 -10.834,40.417c-7.083,12.5 -16.666,22.083 -29.166,29.583c-12.084,7.5 -25.417,10.834 -40,10.834Zm-0,-150.417c-12.5,0 -24.167,3.333 -34.584,9.167c-10.416,6.25 -18.75,14.583 -25,25.416c-6.25,10.834 -9.166,22.084 -9.166,35c-0,12.5 2.916,24.167 9.166,35c6.25,10.834 14.584,19.167 25,25.417c10.417,6.25 22.084,9.167 34.584,9.167c12.5,-0 24.166,-2.917 34.583,-9.167c10.417,-6.25 18.75,-14.583 25,-25.417c6.25,-10.416 9.167,-22.083 9.167,-35c-0,-12.5 -2.917,-24.166 -9.167,-35c-6.25,-10.833 -14.583,-19.166 -25,-25.416c-10.417,-5.834 -22.083,-9.167 -34.583,-9.167Z" style="fill-rule:nonzero;"/><path d="M1027.45,424.167c-14.583,-0 -27.916,-3.75 -40,-10.834c-12.5,-7.5 -22.083,-17.083 -29.166,-29.583c-7.084,-12.5 -10.834,-25.833 -10.834,-40.417c0,-14.583 3.75,-27.916 10.834,-40.416c7.083,-12.5 16.666,-22.084 29.166,-29.584c12.5,-7.5 25.834,-10.833 40,-10.833c11.25,0 22.084,2.5 32.084,7.083c10.416,4.584 19.166,11.25 27.083,19.584l-8.333,7.5c-6.667,-7.5 -14.167,-12.917 -22.917,-17.084c-8.75,-4.166 -18.333,-6.25 -27.917,-6.25c-12.5,0 -24.166,3.334 -34.583,9.167c-10.417,6.25 -18.75,14.583 -25,25.417c-6.25,10.833 -9.167,22.5 -9.167,35c0,12.5 2.917,24.166 9.167,35c6.25,10.833 14.583,19.166 25,25.416c10.417,6.25 22.083,9.167 34.583,9.167c10.417,0 20.417,-2.083 29.584,-6.667c9.166,-4.583 17.5,-10.833 24.166,-19.166l8.75,6.666c-7.5,9.584 -17.083,17.084 -27.916,22.084c-10.834,6.25 -22.5,8.75 -34.584,8.75Z" style="fill-rule:nonzero;"/><path d="M1236.62,349.167l-93.333,-0l-0,73.333l-11.25,0l-0,-157.917l11.25,0l-0,73.334l93.333,-0l0,-73.334l10.833,0l0,157.917l-10.833,0l0,-73.333Z" style="fill-rule:nonzero;"/><path d="M1301.2,422.5l0,-158.333l102.5,-0l0,11.25l-91.666,-0l-0,62.5l71.25,-0l-0,11.25l-71.25,-0l-0,62.083l91.666,0l0,11.25l-102.5,0Z" style="fill-rule:nonzero;"/><path d="M1541.2,422.5l-65.833,-80l19.583,0c12.084,0 21.667,-1.667 29.167,-4.583c5.417,-2.5 10.417,-6.667 14.167,-11.667c4.166,-5.417 6.25,-11.25 6.25,-17.5c-0,-5.833 -1.667,-11.25 -5,-16.25c-3.334,-5 -8.334,-9.167 -14.584,-12.5c-6.25,-3.333 -13.75,-5 -22.083,-5l-44.167,0l0,147.083l-10.833,0l0,-158.333l55.417,0c7.5,0 14.583,1.25 20.833,3.333c6.667,2.5 12.083,5.834 17.083,10c4.584,4.167 8.334,9.167 10.834,14.167c2.5,5.417 3.75,10.833 3.75,16.667c-0,8.75 -2.5,17.083 -7.917,24.166c-5.417,7.084 -11.667,12.084 -19.167,15.417c-5,2.083 -10,3.75 -14.583,4.167c-4.583,0.416 -10,0.833 -15.417,0.833l57.084,69.167l-14.584,-0l0,0.833Z" style="fill-rule:nonzero;"/><path d="M664.537,497.917l-0,5l-27.5,-0l-0,64.583l-5,0l-0,-64.583l-27.5,-0l-0,-5l60,-0Z" style="fill-rule:nonzero;"/><path d="M726.203,535l-40.833,0l0,32.083l-5,0l0,-69.166l5,-0l0,32.083l40.833,0l0,-32.083l5,-0l0,69.166l-5,0l0,-32.083Z" style="fill-rule:nonzero;"/><path d="M782.037,567.917c-6.25,-0 -12.084,-1.667 -17.5,-4.584c-5.417,-3.333 -9.584,-7.5 -12.917,-12.916c-3.333,-5.417 -4.583,-11.25 -4.583,-17.917c-0,-6.25 1.666,-12.5 4.583,-17.917c2.917,-5.416 7.5,-9.583 12.917,-12.916c5.416,-3.334 11.25,-4.584 17.5,-4.584c6.25,0 12.083,1.667 17.5,4.584c5.416,3.333 9.583,7.5 12.916,12.916c3.334,5.417 4.584,11.25 4.584,17.917c-0,6.25 -1.667,12.5 -4.584,17.917c-2.916,5.416 -7.5,9.583 -12.916,12.916c-5.417,3.334 -11.25,4.584 -17.5,4.584Zm-0,-65.834c-5.417,0 -10.417,1.25 -15,4.167c-4.584,2.917 -8.334,6.25 -10.834,11.25c-2.916,4.583 -4.166,9.583 -4.166,15.417c-0,5.416 1.25,10.833 4.166,15.416c2.917,4.584 6.25,8.334 10.834,11.25c4.583,2.917 9.583,4.167 15,4.167c5.416,-0 10.416,-1.25 15,-4.167c4.583,-2.916 8.333,-6.25 10.833,-11.25c2.5,-4.583 4.167,-9.583 4.167,-15.416c-0,-5.417 -1.25,-10.834 -4.167,-15.417c-2.5,-4.583 -6.25,-8.333 -10.833,-11.25c-4.584,-2.917 -9.584,-4.167 -15,-4.167Z" style="fill-rule:nonzero;"/><path d="M873.703,567.5l-28.75,-35l8.334,0c5.416,0 9.583,-0.833 12.916,-2.083c2.5,-1.25 4.584,-2.917 6.25,-5c1.667,-2.5 2.5,-5 2.5,-7.5c0,-2.5 -0.833,-5 -2.083,-7.084c-1.25,-2.083 -3.75,-4.166 -6.25,-5.416c-2.917,-1.25 -5.833,-2.084 -9.583,-2.084l-19.584,0l0,64.584l-5,-0l0,-69.167l24.167,0c3.333,0 6.25,0.417 9.167,1.667c2.916,0.833 5.416,2.5 7.5,4.583c2.083,1.667 3.75,3.75 4.583,6.25c1.25,2.5 1.667,4.583 1.667,7.083c-0,3.75 -1.25,7.5 -3.334,10.417c-2.5,2.917 -5,5.417 -8.333,6.667c-2.083,0.833 -4.167,1.666 -6.25,1.666c-2.083,0.417 -4.167,0.417 -6.667,0.417l25,30.417l-6.25,-0l0,-0.417Z" style="fill-rule:nonzero;"/><path d="M906.62,549.583l-8.333,17.5l-5.417,0l32.5,-70l30.833,70l-5.416,0l-7.917,-17.5l-36.25,0Zm19.167,-40.416l-16.667,35.833l32.5,0l-15.833,-35.833Z" style="fill-rule:nonzero;"/><path d="M1022.87,497.917l-24.583,34.583l24.583,34.583l-5.833,0l-21.667,-30.416l-21.667,30.416l-5.833,0l24.583,-34.583l-24.583,-34.583l5.833,-0l21.667,30.416l21.667,-30.416l5.833,-0Z" style="fill-rule:nonzero;"/><path d="M1062.87,567.917c-6.25,-0 -12.083,-1.667 -17.5,-5c-5.417,-3.334 -9.583,-7.5 -12.917,-12.917c-3.333,-5.417 -4.583,-11.25 -4.583,-17.917c0,-6.666 1.667,-12.5 4.583,-17.5c3.334,-5.416 7.5,-9.583 12.917,-12.916c5.417,-3.334 11.25,-5 17.5,-5c5,-0 9.583,0.833 14.167,2.916c4.583,2.084 8.333,5 12.083,8.75l-3.75,3.334c-2.917,-3.334 -6.25,-5.834 -10,-7.5c-3.75,-1.667 -7.917,-2.5 -12.083,-2.5c-5.417,-0 -10.417,1.25 -15,4.166c-4.584,2.917 -8.334,6.25 -10.834,11.25c-2.916,4.584 -4.166,10 -4.166,15.417c-0,5.417 1.25,10.833 4.166,15.417c2.917,4.583 6.25,8.333 10.834,11.25c4.583,2.916 9.583,4.166 15,4.166c4.583,0 8.75,-0.833 12.916,-2.916c4.167,-2.084 7.5,-4.584 10.417,-8.334l3.75,2.917c-3.333,4.167 -7.5,7.5 -12.083,9.583c-5,2.5 -10,3.334 -15.417,3.334Z" style="fill-rule:nonzero;"/><path d="M1151.62,535l-40.833,0l-0,32.083l-5,0l-0,-69.166l5,-0l-0,32.083l40.833,0l0,-32.083l5,-0l0,69.166l-5,0l0,-32.083Z" style="fill-rule:nonzero;"/><rect x="1178.29" y="498.333" width="5" height="69.167" style="fill-rule:nonzero;"/><path d="M1246.2,567.5l-28.75,-35l8.334,0c5.416,0 9.583,-0.833 12.916,-2.083c2.5,-1.25 4.584,-2.917 6.25,-5c1.667,-2.5 2.5,-5 2.5,-7.5c0,-2.5 -0.833,-5 -2.083,-7.084c-1.25,-2.083 -3.75,-4.166 -6.25,-5.416c-2.917,-1.25 -5.833,-2.084 -9.583,-2.084l-19.584,0l0,64.584l-5,-0l0,-69.167l24.167,0c3.333,0 6.25,0.417 9.167,1.667c2.916,0.833 5.416,2.5 7.5,4.583c2.083,1.667 3.75,3.75 4.583,6.25c1.25,2.5 1.667,4.583 1.667,7.083c-0,3.75 -1.25,7.5 -3.334,10.417c-2.5,2.917 -5,5.417 -8.333,6.667c-2.083,0.833 -4.167,1.666 -6.25,1.666c-2.083,0.417 -4.167,0.417 -6.667,0.417l25,30.417l-6.25,-0l0,-0.417Z" style="fill-rule:nonzero;"/><path d="M1297.45,567.917c-3.333,-0 -6.666,-0.834 -10,-2.084c-3.333,-1.25 -6.25,-3.333 -8.75,-5.833c-2.5,-2.5 -4.583,-5.417 -5.833,-8.333c-1.25,-3.334 -2.083,-6.667 -2.083,-10.417l-0,-43.333l5,-0l-0,43.333c-0,2.917 0.416,5.833 1.666,8.333c1.25,2.5 2.5,5 4.584,7.084c2.083,2.083 4.583,3.75 7.083,4.583c2.5,1.25 5.417,1.667 8.333,1.667c2.917,-0 5.834,-0.417 8.334,-1.667c2.5,-1.25 5,-2.5 7.083,-4.583c2.083,-2.084 3.333,-4.167 4.583,-7.084c1.25,-2.5 1.667,-5.416 1.667,-8.333l0,-43.333l5,-0l0,43.333c0,3.75 -0.833,7.083 -2.083,10.417c-1.25,3.333 -3.334,6.25 -5.834,8.333c-2.5,2.5 -5.416,4.583 -8.333,5.833c-3.333,1.667 -6.667,2.084 -10.417,2.084Z" style="fill-rule:nonzero;"/><path d="M1384.54,567.5l-28.75,-35l8.333,0c5.417,0 9.583,-0.833 12.917,-2.083c2.5,-1.25 4.583,-2.917 6.25,-5c1.666,-2.5 2.5,-5 2.5,-7.5c-0,-2.5 -0.834,-5 -2.084,-7.084c-1.25,-2.083 -3.75,-4.166 -6.25,-5.416c-2.916,-1.25 -5.833,-2.084 -9.583,-2.084l-19.583,0l-0,64.584l-5,-0l-0,-69.167l24.166,0c3.334,0 6.25,0.417 9.167,1.667c2.917,0.833 5.417,2.5 7.5,4.583c2.083,1.667 3.75,3.75 4.583,6.25c1.25,2.5 1.667,4.583 1.667,7.083c0,3.75 -1.25,7.5 -3.333,10.417c-2.5,2.917 -5,5.417 -8.334,6.667c-2.083,0.833 -4.166,1.666 -6.25,1.666c-2.083,0.417 -4.166,0.417 -6.666,0.417l25,30.417l-6.25,-0l-0,-0.417Z" style="fill-rule:nonzero;"/><path d="M1464.12,567.5l-25,0c-6.25,0 -12.083,-1.667 -17.5,-4.583c-5.417,-3.334 -9.583,-7.5 -12.5,-12.917c-2.917,-5.417 -4.583,-11.25 -4.583,-17.5c-0,-6.25 1.666,-12.083 4.583,-17.5c3.333,-5.417 7.5,-9.583 12.5,-12.917c5.417,-3.333 11.25,-4.583 17.5,-4.583c5,0 9.583,0.833 13.75,2.917c4.583,2.083 8.333,4.583 11.667,8.333l-3.334,3.333c-2.916,-2.916 -6.25,-5.416 -10,-7.083c-3.75,-1.667 -7.916,-2.5 -12.083,-2.5c-5.417,0 -10.417,1.25 -15,4.167c-4.583,2.5 -8.333,6.25 -10.833,10.833c-2.5,4.583 -4.167,9.583 -4.167,15c0,5.417 1.25,10.417 4.167,15c2.5,4.583 6.25,8.333 10.833,10.833c4.583,2.917 9.583,4.167 15,4.167l20,0l0,-25l-22.917,0l0,-5l27.917,0l0,35Z" style="fill-rule:nonzero;"/><rect x="1485.79" y="498.333" width="5" height="69.167" style="fill-rule:nonzero;"/><path d="M1512.04,567.917l-0,-69.584l45,0l-0,5l-40,0l-0,27.5l31.25,0l-0,5l-31.25,0l-0,27.084l40,-0l-0,5l-45,-0Z" style="fill-rule:nonzero;"/></g><g><path d="M281.25,580l0,-12.5l-4.583,0c1.25,4.167 2.916,8.333 4.583,12.5Z" style="fill:none;fill-rule:nonzero;"/><path d="M304.583,567.5l-5,0l0,12.5c1.667,-4.167 3.334,-8.333 5,-12.5Z" style="fill:none;fill-rule:nonzero;"/><path d="M281.25,99.167c0,-28.334 -2.917,-55 -9.167,-79.167c0,-0.417 -0.416,-0.833 -0.416,-1.25l-61.25,0c33.75,37.917 56.25,74.583 70.416,115l0,-34.583l0.417,-0Z" style="fill:url(#_Linear2);fill-rule:nonzero;"/><path d="M122.917,380.833c59.583,52.5 121.25,107.084 153.75,186.667l4.583,0l-0,-22.5c-0,-27.917 -2.917,-54.583 -9.167,-79.167c-23.75,-98.75 -90.833,-157.5 -161.666,-219.583c-16.25,-14.167 -58.75,-54.583 -98.334,-92.917l0,109.167c35.834,45.417 79.167,90.417 110.834,118.333Z" style="fill:url(#_Linear3);fill-rule:nonzero;"/><path d="M281.25,431.25l0,-34.583c0,-28.334 -2.917,-54.584 -9.167,-79.167c-23.75,-98.75 -90.833,-157.5 -161.666,-220l-96.667,-78.75l-1.667,0l0,108.75c42.5,41.667 92.917,89.167 110.834,105c62.5,55 127.5,112.083 158.333,198.75Z" style="fill:url(#_Linear4);fill-rule:nonzero;"/><path d="M299.583,99.167l0,35c14.167,-40.417 37.084,-77.5 70.834,-115.417l-61.25,0c-0,0.417 -0.417,0.833 -0.417,1.25c-5.833,24.583 -9.167,50.833 -9.167,79.167Z" style="fill:url(#_Linear5);fill-rule:nonzero;"/><path d="M308.75,317.5c-6.25,25 -9.167,50.833 -9.167,79.167l0,35c30.834,-87.084 95.417,-143.75 158.334,-199.167c16.666,-15 62.083,-57.917 102.916,-97.5l0,-111.25l-90.833,73.75c-70.417,62.5 -137.083,121.25 -161.25,220Z" style="fill:url(#_Linear6);fill-rule:nonzero;"/><path d="M300,247.917l0,34.583c30.833,-87.083 95.417,-144.167 158.333,-199.167l79.167,-64.583l-141.667,0c-46.666,49.167 -73.75,95.833 -86.666,150c-6.25,25 -9.167,50.833 -9.167,79.167Z" style="fill:url(#_Linear7);fill-rule:nonzero;"/><path d="M281.25,282.917l0,-34.584c0,-28.333 -2.917,-54.583 -9.167,-79.166c-13.333,-54.167 -40,-100.834 -86.666,-150l-141.667,-0l79.583,64.583c62.084,55 127.084,112.083 157.917,199.167Z" style="fill:url(#_Linear8);fill-rule:nonzero;"/><path d="M123.75,529.583c14.167,12.5 28.333,25 42.5,38.334l90,-0c-31.25,-71.667 -87.083,-121.25 -145.833,-172.917c-28.334,-25 -65,-62.5 -98.334,-102.5l0,124.583c31.667,41.667 71.667,77.084 111.667,112.5Z" style="fill:url(#_Linear9);fill-rule:nonzero;"/><path d="M12.083,446.667l0,121.25l126.25,-0c-8.75,-7.917 -17.916,-16.25 -27.083,-24.167c-33.75,-30 -68.75,-61.25 -99.167,-97.083Z" style="fill:url(#_Linear10);fill-rule:nonzero;"/><path d="M470.417,543.333c-9.167,7.917 -18.334,16.25 -27.084,24.167l117.917,0l0,-110.833c-28.333,31.666 -60,60 -90.833,86.666Z" style="fill:url(#_Linear11);fill-rule:nonzero;"/><path d="M470.417,246.25c-70.834,62.5 -137.5,121.25 -161.667,219.583c-5.833,24.584 -9.167,51.25 -9.167,79.167l0,22.083l5,0c32.5,-80 93.75,-134.166 153.75,-186.666c29.584,-25.834 68.75,-66.667 102.917,-108.75l0,-110.834c-37.5,36.25 -75.833,72.084 -90.833,85.417Z" style="fill:url(#_Linear12);fill-rule:nonzero;"/><path d="M470.417,395c-58.75,51.667 -115,101.25 -145.834,172.917l90.834,-0c14.166,-12.917 28.333,-25.417 42.5,-38.334c36.25,-32.083 72.916,-64.166 102.916,-101.25l0,-126.666c-30.833,36.25 -64.166,70 -90.416,93.333Z" style="fill:url(#_Linear13);fill-rule:nonzero;"/></g></g></g><defs><linearGradient id="_Linear2" x1="0" y1="0" x2="1" y2="0" gradientUnits="userSpaceOnUse" gradientTransform="matrix(3.36067e-14,-548.839,548.839,3.36067e-14,245.814,567.674)"><stop offset="0" style="stop-color:#003d67;stop-opacity:1"/><stop offset="1" style="stop-color:#087385;stop-opacity:1"/><stop offset="1" style="stop-color:#087385;stop-opacity:1"/></linearGradient><linearGradient id="_Linear3" x1="0" y1="0" x2="1" y2="0" gradientUnits="userSpaceOnUse" gradientTransform="matrix(3.36067e-14,-548.839,548.839,3.36067e-14,146.613,567.674)"><stop offset="0" style="stop-color:#003d67;stop-opacity:1"/><stop offset="1" style="stop-color:#087385;stop-opacity:1"/></linearGradient><linearGradient id="_Linear4" x1="0" y1="0" x2="1" y2="0" gradientUnits="userSpaceOnUse" gradientTransform="matrix(3.36067e-14,-548.839,548.839,3.36067e-14,146.614,567.674)"><stop offset="0" style="stop-color:#003d67;stop-opacity:1"/><stop offset="1" style="stop-color:#087385;stop-opacity:1"/></linearGradient><linearGradient id="_Linear5" x1="0" y1="0" x2="1" y2="0" gradientUnits="userSpaceOnUse" gradientTransform="matrix(3.36067e-14,-548.839,548.839,3.36067e-14,335.023,567.674)"><stop offset="0" style="stop-color:#003d67;stop-opacity:1"/><stop offset="1" style="stop-color:#087385;stop-opacity:1"/></linearGradient><linearGradient id="_Linear6" x1="0" y1="0" x2="1" y2="0" gradientUnits="userSpaceOnUse" gradientTransform="matrix(3.36067e-14,-548.839,548.839,3.36067e-14,430.342,567.674)"><stop offset="0" style="stop-color:#003d67;stop-opacity:1"/><stop offset="1" style="stop-color:#087385;stop-opacity:1"/></linearGradient><linearGradient id="_Linear7" x1="0" y1="0" x2="1" y2="0" gradientUnits="userSpaceOnUse" gradientTransform="matrix(3.36067e-14,-548.839,548.839,3.36067e-14,418.605,567.674)"><stop offset="0" style="stop-color:#003d67;stop-opacity:1"/><stop offset="1" style="stop-color:#087385;stop-opacity:1"/></linearGradient><linearGradient id="_Linear8" x1="0" y1="0" x2="1" y2="0" gradientUnits="userSpaceOnUse" gradientTransform="matrix(3.36067e-14,-548.839,548.839,3.36067e-14,162.232,567.674)"><stop offset="0" style="stop-color:#003d67;stop-opacity:1"/><stop offset="1" style="stop-color:#087385;stop-opacity:1"/></linearGradient><linearGradient id="_Linear9" x1="0" y1="0" x2="1" y2="0" gradientUnits="userSpaceOnUse" gradientTransform="matrix(3.36067e-14,-548.839,548.839,3.36067e-14,134.207,567.674)"><stop offset="0" style="stop-color:#003d67;stop-opacity:1"/><stop offset="1" style="stop-color:#087385;stop-opacity:1"/></linearGradient><linearGradient id="_Linear10" x1="0" y1="0" x2="1" y2="0" gradientUnits="userSpaceOnUse" gradientTransform="matrix(3.36067e-14,-548.839,548.839,3.36067e-14,75.3692,567.674)"><stop offset="0" style="stop-color:#003d67;stop-opacity:1"/><stop offset="1" style="stop-color:#087385;stop-opacity:1"/></linearGradient><linearGradient id="_Linear11" x1="0" y1="0" x2="1" y2="0" gradientUnits="userSpaceOnUse" gradientTransform="matrix(3.36067e-14,-548.839,548.839,3.36067e-14,502.086,567.674)"><stop offset="0" style="stop-color:#003d67;stop-opacity:1"/><stop offset="1" style="stop-color:#087385;stop-opacity:1"/></linearGradient><linearGradient id="_Linear12" x1="0" y1="0" x2="1" y2="0" gradientUnits="userSpaceOnUse" gradientTransform="matrix(3.36067e-14,-548.839,548.839,3.36067e-14,430.341,567.674)"><stop offset="0" style="stop-color:#003d67;stop-opacity:1"/><stop offset="1" style="stop-color:#087385;stop-opacity:1"/></linearGradient><linearGradient id="_Linear13" x1="0" y1="0" x2="1" y2="0" gradientUnits="userSpaceOnUse" gradientTransform="matrix(3.36067e-14,-548.839,548.839,3.36067e-14,442.797,567.674)"><stop offset="0" style="stop-color:#003d67;stop-opacity:1"/><stop offset="1" style="stop-color:#087385;stop-opacity:1"/></linearGradient></defs></svg>