<?xml version="1.0" encoding="UTF-8" standalone="no"?><!DOCTYPE svg PUBLIC "-//W3C//DTD SVG 1.1//EN" "http://www.w3.org/Graphics/SVG/1.1/DTD/svg11.dtd"><svg width="100%" height="100%" viewBox="0 0 800 600" version="1.1" xmlns="http://www.w3.org/2000/svg" xmlns:xlink="http://www.w3.org/1999/xlink" xml:space="preserve" xmlns:serif="http://www.serif.com/" style="fill-rule:evenodd;clip-rule:evenodd;stroke-linejoin:round;stroke-miterlimit:2;"><path d="M69.675,4.99c-25.479,8.034 -43.058,22.955 -57.283,48.638l-12.392,22.375l0,441.668l11.783,23.991c6.48,13.196 18.113,28.826 25.855,34.73c29.687,22.641 27.862,22.529 362.266,22.529c344.729,-0 337.463,0.55 366.6,-27.746c32.313,-31.383 31.229,-21.942 31.229,-272.255c0,-206.996 -0.541,-224.113 -7.612,-239.675c-9.388,-20.667 -28.188,-39.901 -49.204,-50.338c-15.167,-7.533 -30.946,-7.942 -334.667,-8.717c-257.563,-0.658 -322.171,0.263 -336.575,4.8Zm646.696,75.475c4.433,4.438 6.546,14.284 6.546,30.517l-0,23.967l-127.321,105.154c-165.8,136.937 -158.129,131.696 -192.788,131.717c-18.579,0.012 -32.646,-2.467 -42.391,-7.463c-8.021,-4.112 -75.521,-57.729 -150,-119.146l-135.417,-111.671l0.125,-23.987c0.096,-18.713 1.875,-25.267 8.087,-29.813c6.65,-4.858 58.996,-5.82 317.288,-5.82c275.646,-0 310.033,0.712 315.871,6.545Zm-527.267,243.75c61.367,50.58 119.192,96.506 128.504,102.056c25.479,15.196 65.3,24.087 95.304,21.287c31.334,-2.925 55.742,-12.129 82.921,-31.268c16.375,-11.533 185.925,-149.612 219.792,-179c6.925,-6.012 7.292,0.7 7.292,133.605c-0,121.655 -0.855,140.784 -6.546,146.48c-5.838,5.833 -40.225,6.546 -315.871,6.546c-260.475,-0 -310.6,-0.933 -317.413,-5.909c-7.683,-5.616 -8.145,-12.883 -9.287,-145.834c-0.662,-76.958 -0.092,-139.925 1.263,-139.925c1.354,-0 52.675,41.383 114.041,91.962Z"/></svg>