<?xml version="1.0" encoding="UTF-8" standalone="no"?><!DOCTYPE svg PUBLIC "-//W3C//DTD SVG 1.1//EN" "http://www.w3.org/Graphics/SVG/1.1/DTD/svg11.dtd"><svg width="100%" height="100%" viewBox="0 0 2500 2500" version="1.1" xmlns="http://www.w3.org/2000/svg" xmlns:xlink="http://www.w3.org/1999/xlink" xml:space="preserve" xmlns:serif="http://www.serif.com/" style="fill-rule:evenodd;clip-rule:evenodd;stroke-linejoin:round;stroke-miterlimit:2;"><path d="M221.27,203.44c-79.622,28.554 -134.556,81.583 -179.01,172.862l-38.725,79.521l0,1569.7l36.822,85.265c20.25,46.899 56.603,102.448 80.797,123.431c92.772,80.467 87.069,80.069 1132.08,80.069c1077.28,0 1054.57,1.955 1145.62,-98.61c100.979,-111.536 97.591,-77.983 97.591,-967.604c0,-735.671 -1.691,-796.505 -23.787,-851.813c-29.338,-73.452 -88.088,-141.81 -153.763,-178.903c-47.397,-26.773 -96.706,-28.227 -1045.83,-30.981c-804.885,-2.338 -1006.78,0.935 -1051.8,17.059Zm2020.92,268.241c13.853,15.773 20.456,50.766 20.456,108.459l0,85.179l-397.878,373.721c-518.125,486.679 -494.153,468.053 -602.463,468.127c-58.059,0.043 -102.018,-8.768 -132.471,-26.524c-25.066,-14.614 -236.004,-205.171 -468.75,-423.449l-423.179,-396.882l0.391,-85.251c0.3,-66.507 5.859,-89.8 25.272,-105.956c20.781,-17.266 184.362,-20.685 991.525,-20.685c861.394,0 968.853,2.531 987.097,23.261Zm-1647.71,866.296c191.772,179.763 372.475,342.986 401.575,362.711c79.622,54.007 204.063,85.606 297.825,75.655c97.919,-10.396 174.194,-43.107 259.129,-111.128c51.171,-40.989 581.015,-531.726 686.85,-636.172c21.64,-21.367 22.787,2.488 22.787,474.837c0,432.366 -2.672,500.351 -20.456,520.595c-18.244,20.73 -125.703,23.264 -987.097,23.264c-813.984,0 -970.625,-3.315 -991.916,-21c-24.009,-19.96 -25.453,-45.787 -29.022,-518.3c-2.068,-273.511 -0.287,-497.298 3.947,-497.298c4.232,0 164.61,147.077 356.378,326.836Z"/></svg>