<?xml version="1.0" encoding="UTF-8" standalone="no"?><!DOCTYPE svg PUBLIC "-//W3C//DTD SVG 1.1//EN" "http://www.w3.org/Graphics/SVG/1.1/DTD/svg11.dtd"><svg width="100%" height="100%" viewBox="0 0 800 800" version="1.1" xmlns="http://www.w3.org/2000/svg" xmlns:xlink="http://www.w3.org/1999/xlink" xml:space="preserve" xmlns:serif="http://www.serif.com/" style="fill-rule:evenodd;clip-rule:evenodd;stroke-linejoin:round;stroke-miterlimit:2;"><path d="M131.617,23.004c-51.559,11.3 -98.054,23.371 -103.325,26.825c-19.871,13.021 -25.825,29.771 -25.759,72.492c0.15,96.396 25.005,197.433 71.246,289.583c101.513,202.317 281.413,337.042 503.663,377.2c31.396,5.671 70.408,9.588 98.216,9.854c44.38,0.429 46.713,0.005 61.388,-11.171c11.387,-8.67 16.825,-17.125 21.454,-33.333c11.271,-39.508 39.775,-178.617 39.758,-194.05c-0.016,-17.241 -11.687,-38.887 -25.825,-47.9c-19.962,-12.729 -198.287,-86.017 -209.291,-86.017c-21.059,0 -40.125,13.305 -69.555,48.542c-15.983,19.134 -30.629,34.792 -32.545,34.792c-10.046,-0 -61.317,-39.884 -96.196,-74.829c-40.838,-40.917 -79.696,-94.484 -72.158,-99.48c2.3,-1.524 18.704,-14.866 36.454,-29.641c57.546,-47.904 57.654,-52.704 4.05,-177.717c-22.046,-51.412 -43.921,-98.358 -48.617,-104.329c-10.05,-12.775 -31.321,-22.533 -47.625,-21.85c-6.375,0.267 -53.775,9.729 -105.333,21.029Zm289.575,-16.996c-13.725,7.984 -18.75,17.038 -18.75,33.775c-0,17.6 10.325,31.175 25.937,34.105c5.213,0.979 25.65,3.858 45.413,6.4c70.604,9.079 113.637,30.62 166.566,83.391c28.692,28.609 39.292,42.779 53.2,71.142c17.159,34.987 29.484,79.992 29.667,108.333c0.183,28.025 7.8,45.692 22.775,52.829c16.508,7.875 31.696,5.1 44.267,-8.087c8.175,-8.579 8.708,-12.5 6.616,-48.909c-7.879,-137.437 -96.966,-260.212 -225.312,-310.512c-53.546,-20.983 -132.617,-32.796 -150.379,-22.467Zm-158.046,149.646c17.012,40.104 30.941,74.963 30.946,77.458c0.008,2.5 -14.684,16.85 -32.65,31.892c-38.996,32.638 -48.225,48.971 -45.596,80.683c1.529,18.43 5.787,28.092 24.987,56.717c47.2,70.358 105.992,127.55 172.025,167.334c20.329,12.249 29.117,15.062 47.042,15.07c31.779,0.017 49.896,-10.954 78.537,-47.562c13.434,-17.163 25.759,-31.296 27.388,-31.4c4.367,-0.284 150.617,62.141 154.362,65.887c1.755,1.754 -4.054,36.821 -12.904,77.929l-16.091,74.742l-35.309,-0.812c-40.279,-0.93 -107.587,-13.605 -153.441,-28.9c-203.155,-67.763 -364.238,-244.563 -410.546,-450.6c-9.696,-43.134 -19.763,-125.834 -15.838,-130.105c3.721,-4.05 132.8,-32.587 144.392,-31.925c11.137,0.638 13.392,4.525 42.696,73.592Zm158.046,0.646c-13.584,7.429 -18.75,16.654 -18.75,33.483c-0,25.538 10.529,33.05 54.195,38.663c41.655,5.354 85.784,37.441 104.525,76c4.692,9.646 10.284,29.95 12.434,45.121c4.808,33.954 8.433,41.025 24.437,47.654c15.313,6.341 30.504,3.046 41.792,-9.071c16.75,-17.979 6.908,-87.075 -18.646,-130.925c-16.525,-28.35 -53.779,-63.621 -84.392,-79.896c-39.17,-20.825 -96.8,-31.312 -115.595,-21.029Z"/></svg>